<mxfile host="65bd71144e">
    <diagram id="vnfWHbfE4DmCyd6g4VCD" name="第 1 页">
        <mxGraphModel dx="907" dy="534" grid="0" gridSize="10" guides="1" tooltips="1" connect="1" arrows="1" fold="1" page="1" pageScale="1" pageWidth="827" pageHeight="1169" background="#ffffff" math="0" shadow="0">
            <root>
                <mxCell id="0"/>
                <mxCell id="1" parent="0"/>
                <mxCell id="3" value="&lt;font color=&quot;#000000&quot;&gt;用户&lt;/font&gt;" style="rounded=0;whiteSpace=wrap;html=1;strokeColor=#000000;fillColor=none;" parent="1" vertex="1">
                    <mxGeometry x="50" y="120" width="80" height="40" as="geometry"/>
                </mxCell>
                <mxCell id="21" value="m" style="edgeStyle=none;html=1;exitX=0.5;exitY=1;exitDx=0;exitDy=0;entryX=0;entryY=0.5;entryDx=0;entryDy=0;labelBackgroundColor=none;strokeColor=#000000;fontColor=#000000;endArrow=none;endFill=0;fillColor=none;" parent="1" source="4" target="14" edge="1">
                    <mxGeometry x="0.1236" y="-7" relative="1" as="geometry">
                        <mxPoint as="offset"/>
                    </mxGeometry>
                </mxCell>
                <mxCell id="31" value="m" style="edgeStyle=none;html=1;exitX=0;exitY=0.5;exitDx=0;exitDy=0;entryX=1;entryY=0.5;entryDx=0;entryDy=0;labelBackgroundColor=none;strokeColor=#000000;fontColor=#000000;endArrow=none;endFill=0;fillColor=none;" parent="1" source="4" target="33" edge="1">
                    <mxGeometry x="0.1114" y="-7" relative="1" as="geometry">
                        <mxPoint x="360" y="220" as="targetPoint"/>
                        <mxPoint as="offset"/>
                    </mxGeometry>
                </mxCell>
                <mxCell id="71" value="n" style="edgeStyle=none;html=1;exitX=0;exitY=1;exitDx=0;exitDy=0;entryX=0;entryY=0.5;entryDx=0;entryDy=0;labelBackgroundColor=none;strokeColor=#000000;fontColor=#000000;endArrow=none;endFill=0;fillColor=none;" parent="1" source="4" target="69" edge="1">
                    <mxGeometry x="-0.0157" y="9" relative="1" as="geometry">
                        <mxPoint as="offset"/>
                    </mxGeometry>
                </mxCell>
                <mxCell id="4" value="&lt;font color=&quot;#000000&quot;&gt;管理员&lt;/font&gt;" style="rounded=0;whiteSpace=wrap;html=1;strokeColor=#000000;fillColor=none;" parent="1" vertex="1">
                    <mxGeometry x="610" y="120" width="80" height="40" as="geometry"/>
                </mxCell>
                <mxCell id="6" value="&lt;font color=&quot;#000000&quot;&gt;维修商品&lt;/font&gt;" style="rounded=0;whiteSpace=wrap;html=1;strokeColor=#000000;fillColor=none;" parent="1" vertex="1">
                    <mxGeometry x="280" y="440" width="80" height="40" as="geometry"/>
                </mxCell>
                <mxCell id="7" value="&lt;font color=&quot;#000000&quot;&gt;维修员&lt;/font&gt;" style="rounded=0;whiteSpace=wrap;html=1;strokeColor=#000000;fillColor=none;" parent="1" vertex="1">
                    <mxGeometry x="520" y="440" width="80" height="40" as="geometry"/>
                </mxCell>
                <mxCell id="8" value="&lt;font color=&quot;#000000&quot;&gt;评价&lt;/font&gt;" style="rounded=0;whiteSpace=wrap;html=1;strokeColor=#000000;fillColor=none;" parent="1" vertex="1">
                    <mxGeometry x="386" y="307.5" width="80" height="40" as="geometry"/>
                </mxCell>
                <mxCell id="38" value="1" style="edgeStyle=none;html=1;exitX=0.5;exitY=1;exitDx=0;exitDy=0;entryX=1;entryY=0.5;entryDx=0;entryDy=0;labelBackgroundColor=none;strokeColor=#000000;fontColor=#000000;endArrow=none;endFill=0;fillColor=none;" parent="1" source="10" target="37" edge="1">
                    <mxGeometry x="0.3333" y="10" relative="1" as="geometry">
                        <mxPoint as="offset"/>
                    </mxGeometry>
                </mxCell>
                <mxCell id="10" value="&lt;font color=&quot;#000000&quot;&gt;维修商品类别&lt;/font&gt;" style="rounded=0;whiteSpace=wrap;html=1;strokeColor=#000000;fillColor=none;" parent="1" vertex="1">
                    <mxGeometry x="505" y="320" width="80" height="40" as="geometry"/>
                </mxCell>
                <mxCell id="11" value="&lt;font color=&quot;#000000&quot;&gt;关注商品&lt;/font&gt;" style="rounded=0;whiteSpace=wrap;html=1;strokeColor=#000000;fillColor=none;" parent="1" vertex="1">
                    <mxGeometry x="300" y="200" width="80" height="40" as="geometry"/>
                </mxCell>
                <mxCell id="12" value="&lt;font color=&quot;#000000&quot;&gt;福利&lt;/font&gt;" style="rounded=0;whiteSpace=wrap;html=1;strokeColor=#000000;fillColor=none;" parent="1" vertex="1">
                    <mxGeometry x="264" y="252" width="80" height="40" as="geometry"/>
                </mxCell>
                <mxCell id="20" value="n" style="edgeStyle=none;html=1;exitX=0;exitY=0.5;exitDx=0;exitDy=0;entryX=1;entryY=0.5;entryDx=0;entryDy=0;labelBackgroundColor=none;strokeColor=#000000;fontColor=#000000;fillColor=none;endArrow=none;endFill=0;" parent="1" source="13" target="3" edge="1">
                    <mxGeometry y="-10" relative="1" as="geometry">
                        <mxPoint as="offset"/>
                    </mxGeometry>
                </mxCell>
                <mxCell id="13" value="管理" style="rhombus;whiteSpace=wrap;html=1;strokeColor=#000000;fontColor=#000000;fillColor=none;" parent="1" vertex="1">
                    <mxGeometry x="294" y="117" width="80" height="50" as="geometry"/>
                </mxCell>
                <mxCell id="22" value="n" style="edgeStyle=none;html=1;exitX=1;exitY=0.5;exitDx=0;exitDy=0;entryX=0.626;entryY=-0.014;entryDx=0;entryDy=0;labelBackgroundColor=none;strokeColor=#000000;fontColor=#000000;endArrow=none;endFill=0;fillColor=none;entryPerimeter=0;" parent="1" source="14" target="10" edge="1">
                    <mxGeometry x="-0.3325" y="8" relative="1" as="geometry">
                        <mxPoint as="offset"/>
                    </mxGeometry>
                </mxCell>
                <mxCell id="14" value="管理" style="rhombus;whiteSpace=wrap;html=1;strokeColor=#000000;fontColor=#000000;fillColor=none;rotation=30;direction=south;" parent="1" vertex="1">
                    <mxGeometry x="600" y="192.5" width="50" height="75" as="geometry"/>
                </mxCell>
                <mxCell id="18" value="m" style="endArrow=none;html=1;strokeColor=#000000;fontColor=#000000;entryX=1;entryY=0.5;entryDx=0;entryDy=0;exitX=0;exitY=0.5;exitDx=0;exitDy=0;labelBackgroundColor=none;" parent="1" source="4" target="13" edge="1">
                    <mxGeometry y="-10" width="50" height="50" relative="1" as="geometry">
                        <mxPoint x="460" y="300" as="sourcePoint"/>
                        <mxPoint x="510" y="250" as="targetPoint"/>
                        <mxPoint as="offset"/>
                    </mxGeometry>
                </mxCell>
                <mxCell id="34" value="n" style="edgeStyle=none;html=1;exitX=0;exitY=0.5;exitDx=0;exitDy=0;entryX=1;entryY=1;entryDx=0;entryDy=0;labelBackgroundColor=none;strokeColor=#000000;fontColor=#000000;endArrow=none;endFill=0;fillColor=none;" parent="1" source="33" target="3" edge="1">
                    <mxGeometry x="0.1529" y="-10" relative="1" as="geometry">
                        <mxPoint x="-1" as="offset"/>
                    </mxGeometry>
                </mxCell>
                <mxCell id="33" value="服务咨询" style="rhombus;whiteSpace=wrap;html=1;strokeColor=#000000;fontColor=#000000;fillColor=none;" parent="1" vertex="1">
                    <mxGeometry x="401" y="158" width="80" height="50" as="geometry"/>
                </mxCell>
                <mxCell id="39" value="n" style="edgeStyle=none;html=1;exitX=0;exitY=0.5;exitDx=0;exitDy=0;entryX=1;entryY=0.5;entryDx=0;entryDy=0;labelBackgroundColor=none;strokeColor=#000000;fontColor=#000000;endArrow=none;endFill=0;fillColor=none;" parent="1" source="37" target="6" edge="1">
                    <mxGeometry x="-0.3333" y="10" relative="1" as="geometry">
                        <mxPoint as="offset"/>
                    </mxGeometry>
                </mxCell>
                <mxCell id="37" value="属于" style="rhombus;whiteSpace=wrap;html=1;strokeColor=#000000;fontColor=#000000;fillColor=none;rotation=-45;direction=east;" parent="1" vertex="1">
                    <mxGeometry x="440" y="400" width="80" height="50" as="geometry"/>
                </mxCell>
                <mxCell id="41" value="m" style="edgeStyle=none;html=1;exitX=1;exitY=0.5;exitDx=0;exitDy=0;entryX=0;entryY=0.5;entryDx=0;entryDy=0;labelBackgroundColor=none;strokeColor=#000000;fontColor=#000000;endArrow=none;endFill=0;fillColor=none;" parent="1" source="40" target="6" edge="1">
                    <mxGeometry x="-0.1948" y="10" relative="1" as="geometry">
                        <mxPoint as="offset"/>
                    </mxGeometry>
                </mxCell>
                <mxCell id="42" value="n" style="edgeStyle=none;html=1;exitX=0;exitY=0.5;exitDx=0;exitDy=0;labelBackgroundColor=none;strokeColor=#000000;fontColor=#000000;endArrow=none;endFill=0;fillColor=none;entryX=0.5;entryY=1;entryDx=0;entryDy=0;" parent="1" source="40" target="3" edge="1">
                    <mxGeometry x="0.0597" y="14" relative="1" as="geometry">
                        <mxPoint x="90" y="160" as="targetPoint"/>
                        <mxPoint as="offset"/>
                    </mxGeometry>
                </mxCell>
                <mxCell id="77" style="edgeStyle=none;html=1;exitX=0.5;exitY=1;exitDx=0;exitDy=0;entryX=0.5;entryY=0;entryDx=0;entryDy=0;labelBackgroundColor=none;strokeColor=#000000;fontColor=#000000;endArrow=none;endFill=0;fillColor=none;" parent="1" source="40" target="76" edge="1">
                    <mxGeometry relative="1" as="geometry"/>
                </mxCell>
                <mxCell id="79" style="edgeStyle=none;html=1;exitX=0.5;exitY=0;exitDx=0;exitDy=0;entryX=0;entryY=0.5;entryDx=0;entryDy=0;labelBackgroundColor=none;strokeColor=#000000;fontColor=#000000;endArrow=none;endFill=0;fillColor=none;" parent="1" source="40" target="78" edge="1">
                    <mxGeometry relative="1" as="geometry"/>
                </mxCell>
                <mxCell id="85" style="edgeStyle=none;html=1;exitX=0.5;exitY=0;exitDx=0;exitDy=0;entryX=0;entryY=0.5;entryDx=0;entryDy=0;labelBackgroundColor=none;strokeColor=#000000;fontColor=#000000;endArrow=none;endFill=0;fillColor=none;" parent="1" source="40" target="84" edge="1">
                    <mxGeometry relative="1" as="geometry"/>
                </mxCell>
                <mxCell id="40" value="预约" style="rhombus;whiteSpace=wrap;html=1;strokeColor=#000000;fontColor=#000000;fillColor=none;rotation=50;" parent="1" vertex="1">
                    <mxGeometry x="101" y="330" width="80" height="50" as="geometry"/>
                </mxCell>
                <mxCell id="43" value="m" style="edgeStyle=none;html=1;exitX=0.5;exitY=1;exitDx=0;exitDy=0;entryX=0;entryY=0.5;entryDx=0;entryDy=0;labelBackgroundColor=none;strokeColor=#000000;fontColor=#000000;endArrow=none;endFill=0;fillColor=none;" parent="1" source="4" target="45" edge="1">
                    <mxGeometry x="0.1462" y="6" relative="1" as="geometry">
                        <mxPoint x="680.000635094611" y="299.99595264191646" as="sourcePoint"/>
                        <mxPoint as="offset"/>
                    </mxGeometry>
                </mxCell>
                <mxCell id="44" value="n" style="edgeStyle=none;html=1;exitX=1;exitY=0.5;exitDx=0;exitDy=0;entryX=0.5;entryY=0;entryDx=0;entryDy=0;labelBackgroundColor=none;strokeColor=#000000;fontColor=#000000;endArrow=none;endFill=0;fillColor=none;" parent="1" source="45" target="7" edge="1">
                    <mxGeometry x="-0.3325" y="8" relative="1" as="geometry">
                        <mxPoint x="620.000635094611" y="439.99595264191646" as="targetPoint"/>
                        <mxPoint as="offset"/>
                    </mxGeometry>
                </mxCell>
                <mxCell id="45" value="管理" style="rhombus;whiteSpace=wrap;html=1;strokeColor=#000000;fontColor=#000000;fillColor=none;rotation=30;direction=south;" parent="1" vertex="1">
                    <mxGeometry x="625.000635094611" y="304.99595264191646" width="50" height="75" as="geometry"/>
                </mxCell>
                <mxCell id="46" value="m" style="edgeStyle=none;html=1;entryX=0;entryY=0.5;entryDx=0;entryDy=0;labelBackgroundColor=none;strokeColor=#000000;fontColor=#000000;endArrow=none;endFill=0;fillColor=none;exitX=0.5;exitY=1;exitDx=0;exitDy=0;" parent="1" source="3" target="48" edge="1">
                    <mxGeometry x="0.1462" y="6" relative="1" as="geometry">
                        <mxPoint x="50" y="160" as="sourcePoint"/>
                        <mxPoint as="offset"/>
                    </mxGeometry>
                </mxCell>
                <mxCell id="47" value="n" style="edgeStyle=none;html=1;exitX=1;exitY=0.5;exitDx=0;exitDy=0;entryX=0;entryY=0.5;entryDx=0;entryDy=0;labelBackgroundColor=none;strokeColor=#000000;fontColor=#000000;endArrow=none;endFill=0;fillColor=none;" parent="1" source="48" target="11" edge="1">
                    <mxGeometry x="-0.3325" y="8" relative="1" as="geometry">
                        <mxPoint x="185.40063509461095" y="544.9759526419165" as="targetPoint"/>
                        <mxPoint as="offset"/>
                    </mxGeometry>
                </mxCell>
                <mxCell id="48" value="关注" style="rhombus;whiteSpace=wrap;html=1;strokeColor=#000000;fontColor=#000000;fillColor=none;rotation=-75;direction=south;" parent="1" vertex="1">
                    <mxGeometry x="190.00063509461094" y="164.9959526419165" width="50" height="75" as="geometry"/>
                </mxCell>
                <mxCell id="52" value="1" style="edgeStyle=none;html=1;entryX=0;entryY=0.5;entryDx=0;entryDy=0;labelBackgroundColor=none;strokeColor=#000000;fontColor=#000000;endArrow=none;endFill=0;fillColor=none;exitX=1;exitY=0.5;exitDx=0;exitDy=0;" parent="1" source="6" target="54" edge="1">
                    <mxGeometry x="0.3333" y="10" relative="1" as="geometry">
                        <mxPoint x="440" y="410" as="sourcePoint"/>
                        <mxPoint as="offset"/>
                    </mxGeometry>
                </mxCell>
                <mxCell id="53" value="n" style="edgeStyle=none;html=1;exitX=0.5;exitY=1;exitDx=0;exitDy=0;labelBackgroundColor=none;strokeColor=#000000;fontColor=#000000;endArrow=none;endFill=0;fillColor=none;entryX=1;entryY=0.5;entryDx=0;entryDy=0;" parent="1" source="8" target="54" edge="1">
                    <mxGeometry x="0.2981" y="10" relative="1" as="geometry">
                        <mxPoint x="193" y="520" as="targetPoint"/>
                        <mxPoint as="offset"/>
                    </mxGeometry>
                </mxCell>
                <mxCell id="54" value="属于" style="rhombus;whiteSpace=wrap;html=1;strokeColor=#000000;fontColor=#000000;fillColor=none;rotation=-60;direction=east;" parent="1" vertex="1">
                    <mxGeometry x="359.99750917912576" y="365.00090746132753" width="80" height="50" as="geometry"/>
                </mxCell>
                <mxCell id="57" value="n" style="edgeStyle=none;html=1;exitX=1;exitY=0.5;exitDx=0;exitDy=0;entryX=0;entryY=0.5;entryDx=0;entryDy=0;labelBackgroundColor=none;strokeColor=#000000;fontColor=#000000;endArrow=none;endFill=0;fillColor=none;" parent="1" source="56" target="12" edge="1">
                    <mxGeometry x="-0.2264" y="8" relative="1" as="geometry">
                        <mxPoint as="offset"/>
                    </mxGeometry>
                </mxCell>
                <mxCell id="58" value="m" style="edgeStyle=none;html=1;exitX=0;exitY=0.5;exitDx=0;exitDy=0;labelBackgroundColor=none;strokeColor=#000000;fontColor=#000000;endArrow=none;endFill=0;fillColor=none;entryX=0.5;entryY=1;entryDx=0;entryDy=0;" parent="1" source="56" target="3" edge="1">
                    <mxGeometry x="-0.0841" y="7" relative="1" as="geometry">
                        <mxPoint x="50" y="160" as="targetPoint"/>
                        <mxPoint as="offset"/>
                    </mxGeometry>
                </mxCell>
                <mxCell id="56" value="领取" style="rhombus;whiteSpace=wrap;html=1;strokeColor=#000000;fontColor=#000000;fillColor=none;rotation=-50;direction=south;" parent="1" vertex="1">
                    <mxGeometry x="150.00063509461094" y="199.99595264191646" width="50" height="75" as="geometry"/>
                </mxCell>
                <mxCell id="62" style="edgeStyle=none;html=1;exitX=1;exitY=0.5;exitDx=0;exitDy=0;entryX=1;entryY=0;entryDx=0;entryDy=0;labelBackgroundColor=none;strokeColor=#000000;fontColor=#000000;endArrow=none;endFill=0;fillColor=none;" parent="1" source="14" target="14" edge="1">
                    <mxGeometry relative="1" as="geometry"/>
                </mxCell>
                <mxCell id="70" value="m" style="edgeStyle=none;html=1;exitX=1;exitY=0.5;exitDx=0;exitDy=0;entryX=0.5;entryY=0;entryDx=0;entryDy=0;labelBackgroundColor=none;strokeColor=#000000;fontColor=#000000;endArrow=none;endFill=0;fillColor=none;" parent="1" source="69" target="8" edge="1">
                    <mxGeometry x="-0.1172" y="-7" relative="1" as="geometry">
                        <mxPoint as="offset"/>
                    </mxGeometry>
                </mxCell>
                <mxCell id="69" value="查阅" style="rhombus;whiteSpace=wrap;html=1;strokeColor=#000000;fontColor=#000000;fillColor=none;rotation=50;direction=south;" parent="1" vertex="1">
                    <mxGeometry x="519.9989768626133" y="219.9980708943603" width="50" height="75" as="geometry"/>
                </mxCell>
                <mxCell id="74" value="n" style="edgeStyle=none;html=1;exitX=1;exitY=0.5;exitDx=0;exitDy=0;entryX=1;entryY=0.5;entryDx=0;entryDy=0;labelBackgroundColor=none;strokeColor=#000000;fontColor=#000000;endArrow=none;endFill=0;fillColor=none;" parent="1" source="73" target="12" edge="1">
                    <mxGeometry x="0.0781" y="-16" relative="1" as="geometry">
                        <mxPoint as="offset"/>
                    </mxGeometry>
                </mxCell>
                <mxCell id="75" value="m" style="edgeStyle=none;html=1;exitX=0;exitY=0.5;exitDx=0;exitDy=0;entryX=0;entryY=1;entryDx=0;entryDy=0;labelBackgroundColor=none;strokeColor=#000000;fontColor=#000000;endArrow=none;endFill=0;fillColor=none;" parent="1" source="73" target="4" edge="1">
                    <mxGeometry x="-0.0498" y="-6" relative="1" as="geometry">
                        <mxPoint y="1" as="offset"/>
                    </mxGeometry>
                </mxCell>
                <mxCell id="73" value="管理" style="rhombus;whiteSpace=wrap;html=1;strokeColor=#000000;fontColor=#000000;fillColor=none;rotation=70;direction=south;" parent="1" vertex="1">
                    <mxGeometry x="409.99897686261323" y="219.9980708943603" width="50" height="75" as="geometry"/>
                </mxCell>
                <mxCell id="76" value="预约时间" style="ellipse;whiteSpace=wrap;html=1;labelBackgroundColor=none;strokeColor=#000000;fontColor=#000000;fillColor=none;" parent="1" vertex="1">
                    <mxGeometry x="111" y="430" width="57.5" height="30" as="geometry"/>
                </mxCell>
                <mxCell id="78" value="实付款" style="ellipse;whiteSpace=wrap;html=1;labelBackgroundColor=none;strokeColor=#000000;fontColor=#000000;fillColor=none;" parent="1" vertex="1">
                    <mxGeometry x="300" y="365" width="60" height="35" as="geometry"/>
                </mxCell>
                <mxCell id="82" style="edgeStyle=none;html=1;exitX=1;exitY=0.5;exitDx=0;exitDy=0;entryX=0.5;entryY=1;entryDx=0;entryDy=0;labelBackgroundColor=none;strokeColor=#000000;fontColor=#000000;endArrow=none;endFill=0;fillColor=none;" parent="1" source="80" target="40" edge="1">
                    <mxGeometry relative="1" as="geometry"/>
                </mxCell>
                <mxCell id="80" value="优惠" style="ellipse;whiteSpace=wrap;html=1;labelBackgroundColor=none;strokeColor=#000000;fontColor=#000000;fillColor=none;" parent="1" vertex="1">
                    <mxGeometry x="41" y="400" width="55" height="30" as="geometry"/>
                </mxCell>
                <mxCell id="83" style="edgeStyle=none;html=1;exitX=1;exitY=0.5;exitDx=0;exitDy=0;entryX=0.5;entryY=1;entryDx=0;entryDy=0;labelBackgroundColor=none;strokeColor=#000000;fontColor=#000000;endArrow=none;endFill=0;fillColor=none;" parent="1" source="81" target="40" edge="1">
                    <mxGeometry relative="1" as="geometry"/>
                </mxCell>
                <mxCell id="81" value="备注" style="ellipse;whiteSpace=wrap;html=1;labelBackgroundColor=none;strokeColor=#000000;fontColor=#000000;fillColor=none;" parent="1" vertex="1">
                    <mxGeometry x="41" y="347.5" width="55" height="32.5" as="geometry"/>
                </mxCell>
                <mxCell id="84" value="支付凭证" style="ellipse;whiteSpace=wrap;html=1;labelBackgroundColor=none;strokeColor=#000000;fontColor=#000000;fillColor=none;" parent="1" vertex="1">
                    <mxGeometry x="235" y="390" width="65" height="35" as="geometry"/>
                </mxCell>
                <mxCell id="89" value="1" style="edgeStyle=none;html=1;exitX=0;exitY=0.5;exitDx=0;exitDy=0;entryX=0.5;entryY=1;entryDx=0;entryDy=0;labelBackgroundColor=none;strokeColor=#000000;fontColor=#000000;fillColor=none;endArrow=none;endFill=0;" parent="1" source="90" target="3" edge="1">
                    <mxGeometry y="-10" relative="1" as="geometry">
                        <mxPoint x="46" y="357.5" as="targetPoint"/>
                        <Array as="points">
                            <mxPoint x="126" y="249"/>
                        </Array>
                        <mxPoint as="offset"/>
                    </mxGeometry>
                </mxCell>
                <mxCell id="90" value="输入" style="rhombus;whiteSpace=wrap;html=1;strokeColor=#000000;fontColor=#000000;fillColor=none;" parent="1" vertex="1">
                    <mxGeometry x="210" y="302.5" width="80" height="50" as="geometry"/>
                </mxCell>
                <mxCell id="91" value="n" style="endArrow=none;html=1;strokeColor=#000000;fontColor=#000000;entryX=1;entryY=0.5;entryDx=0;entryDy=0;labelBackgroundColor=none;exitX=0;exitY=0.5;exitDx=0;exitDy=0;" parent="1" source="8" target="90" edge="1">
                    <mxGeometry y="-10" width="50" height="50" relative="1" as="geometry">
                        <mxPoint x="418" y="337.5" as="sourcePoint"/>
                        <mxPoint x="426" y="467.5" as="targetPoint"/>
                        <mxPoint as="offset"/>
                    </mxGeometry>
                </mxCell>
                <mxCell id="96" style="edgeStyle=none;html=1;exitX=0.5;exitY=1;exitDx=0;exitDy=0;entryX=0.5;entryY=0;entryDx=0;entryDy=0;fontColor=#000000;strokeColor=#000000;" parent="1" source="92" target="98" edge="1">
                    <mxGeometry relative="1" as="geometry">
                        <mxPoint x="175" y="683" as="targetPoint"/>
                    </mxGeometry>
                </mxCell>
                <mxCell id="92" value="&lt;font color=&quot;#000000&quot;&gt;开始&lt;/font&gt;" style="rounded=1;whiteSpace=wrap;html=1;fillColor=none;strokeColor=#000000;" parent="1" vertex="1">
                    <mxGeometry x="125.5" y="606" width="99" height="41" as="geometry"/>
                </mxCell>
                <mxCell id="94" value="&lt;font color=&quot;#000000&quot;&gt;结束&lt;/font&gt;" style="rounded=1;whiteSpace=wrap;html=1;fillColor=none;strokeColor=#000000;" parent="1" vertex="1">
                    <mxGeometry x="125.5" y="973" width="99" height="41" as="geometry"/>
                </mxCell>
                <mxCell id="105" style="edgeStyle=none;html=1;exitX=0.5;exitY=1;exitDx=0;exitDy=0;entryX=0.5;entryY=0;entryDx=0;entryDy=0;labelBackgroundColor=none;strokeColor=#000000;fontColor=#000000;" parent="1" source="97" target="104" edge="1">
                    <mxGeometry relative="1" as="geometry"/>
                </mxCell>
                <mxCell id="97" value="&lt;font color=&quot;#000000&quot;&gt;进入详情预约&lt;/font&gt;" style="rounded=1;whiteSpace=wrap;html=1;fillColor=none;strokeColor=#000000;arcSize=0;" parent="1" vertex="1">
                    <mxGeometry x="125.5" y="813" width="99" height="41" as="geometry"/>
                </mxCell>
                <mxCell id="100" value="是" style="edgeStyle=none;html=1;exitX=0.5;exitY=1;exitDx=0;exitDy=0;entryX=0.5;entryY=0;entryDx=0;entryDy=0;labelBackgroundColor=none;strokeColor=#000000;fontColor=#000000;" parent="1" source="98" target="97" edge="1">
                    <mxGeometry y="-8" relative="1" as="geometry">
                        <mxPoint as="offset"/>
                    </mxGeometry>
                </mxCell>
                <mxCell id="102" value="否" style="edgeStyle=none;html=1;exitX=1;exitY=0.5;exitDx=0;exitDy=0;entryX=0;entryY=0.5;entryDx=0;entryDy=0;labelBackgroundColor=none;strokeColor=#000000;fontColor=#000000;" parent="1" source="98" target="101" edge="1">
                    <mxGeometry x="-0.0455" y="10" relative="1" as="geometry">
                        <mxPoint x="1" as="offset"/>
                    </mxGeometry>
                </mxCell>
                <mxCell id="98" value="已登录" style="rhombus;whiteSpace=wrap;html=1;strokeColor=#000000;fontColor=#000000;fillColor=none;" parent="1" vertex="1">
                    <mxGeometry x="135" y="693" width="80" height="60" as="geometry"/>
                </mxCell>
                <mxCell id="103" style="edgeStyle=none;html=1;exitX=0.5;exitY=1;exitDx=0;exitDy=0;labelBackgroundColor=none;strokeColor=#000000;fontColor=#000000;" parent="1" source="101" edge="1">
                    <mxGeometry relative="1" as="geometry">
                        <mxPoint x="176.5" y="783" as="targetPoint"/>
                        <Array as="points">
                            <mxPoint x="330.5" y="783"/>
                        </Array>
                    </mxGeometry>
                </mxCell>
                <mxCell id="101" value="&lt;font color=&quot;#000000&quot;&gt;登录&lt;/font&gt;" style="rounded=1;whiteSpace=wrap;html=1;fillColor=none;strokeColor=#000000;arcSize=0;" parent="1" vertex="1">
                    <mxGeometry x="281" y="702.5" width="99" height="41" as="geometry"/>
                </mxCell>
                <mxCell id="106" style="edgeStyle=none;html=1;exitX=0.5;exitY=1;exitDx=0;exitDy=0;entryX=0.5;entryY=0;entryDx=0;entryDy=0;labelBackgroundColor=none;strokeColor=#000000;fontColor=#000000;" parent="1" source="104" target="94" edge="1">
                    <mxGeometry relative="1" as="geometry"/>
                </mxCell>
                <mxCell id="104" value="&lt;font color=&quot;#000000&quot;&gt;填写表单&lt;/font&gt;" style="rounded=1;whiteSpace=wrap;html=1;fillColor=none;strokeColor=#000000;arcSize=0;" parent="1" vertex="1">
                    <mxGeometry x="125.5" y="893" width="99" height="41" as="geometry"/>
                </mxCell>
            </root>
        </mxGraphModel>
    </diagram>
</mxfile>